<svg id="Layer_1" data-name="Layer 1" xmlns="http://www.w3.org/2000/svg" viewBox="0 0 358.5 101.04"><defs><style>.cls-1,.cls-2{fill:#fff;}.cls-1{stroke:#231f20;stroke-miterlimit:10;stroke-width:4px;}.cls-3{fill:#231f20;}.cls-4{fill:#0066a4;}.cls-5{fill:#bf1e2e;}</style></defs><title>logo</title><rect class="cls-1" x="2" y="2" width="354.5" height="97.04" rx="17" ry="17"/><path class="cls-2" d="M340,16.26c-2-1.71-5-2.55-9.27-2.55H309.64A3,3,0,0,0,307.2,15a3,3,0,0,0-2.44-1.26h-24.9a3,3,0,0,0-2.32,1.11,3,3,0,0,0-2.31-1.11h-24.9a3.06,3.06,0,0,0-1.53.43,3.06,3.06,0,0,0-1.53-.43h-26.6a3.06,3.06,0,0,0-1.53.43,3,3,0,0,0-1.52-.43h-7a3,3,0,0,0-3,3v8l-7.83-9.87a3,3,0,0,0-2.35-1.14H186.64a3,3,0,0,0-3,3v15.6l-9.37-17a3,3,0,0,0-2.63-1.56h-9.09a3,3,0,0,0-2.64,1.57l-9.56,17.66c0-.16-.07-.33-.12-.48a6.82,6.82,0,0,0-.92-1.94,2.11,2.11,0,0,0,.18-.27,10,10,0,0,0,1.25-5.33V23.47a13.89,13.89,0,0,0-.44-3.61,8,8,0,0,0-1.74-3.3,7.88,7.88,0,0,0-3.34-2.2,12.53,12.53,0,0,0-4.31-.65H119.84a3,3,0,0,0-3,3V32.32l-9.37-17a3,3,0,0,0-2.63-1.56H95.75a3,3,0,0,0-2.64,1.57l-9.21,17c0-.3,0-.6,0-.92V16.71a3,3,0,0,0-3-3H74a3,3,0,0,0-3,3V29.86a4.34,4.34,0,0,1-.09,1,4.32,4.32,0,0,1-.81.06H63.14a4.54,4.54,0,0,1-.82-.06,4.54,4.54,0,0,1-.08-1V16.71a3,3,0,0,0-3-3h-7a3,3,0,0,0-3,3v.53a8.33,8.33,0,0,0-.81-1,9.21,9.21,0,0,0-4.05-2.2,20.91,20.91,0,0,0-5.51-.61H28.39a25.43,25.43,0,0,0-4.92.42,10.94,10.94,0,0,0-4.24,1.78,8.78,8.78,0,0,0-3,3.81,13.42,13.42,0,0,0-.91,5.23v6.79a13.42,13.42,0,0,0,.91,5.23,8.67,8.67,0,0,0,3,3.82,11.25,11.25,0,0,0,4.2,1.75,23.9,23.9,0,0,0,4.94.44h8.39c2.42,0,4.27-.06,5.66-.18a12.13,12.13,0,0,0,4.34-1.14A7.16,7.16,0,0,0,50.12,38c.12-.26.22-.55.32-.84a8.85,8.85,0,0,0,2.1,2.81c2.07,1.87,5.12,2.81,9.06,2.81h10c3.84,0,6.82-.9,8.9-2.68a3.05,3.05,0,0,0,.35,1,3,3,0,0,0,2.57,1.46h7.8a3,3,0,0,0,2.68-1.64l1.21-2.38h10.52L107,40.91a3,3,0,0,0,2.64,1.57h7.77a3,3,0,0,0,1.22-.28,3.14,3.14,0,0,0,1.26.28h7a3,3,0,0,0,3-3V36.57h7.84v2.91a3,3,0,0,0,3,3h7a2.83,2.83,0,0,0,1.3-.31,3,3,0,0,0,1.28.31H158a3,3,0,0,0,2.68-1.64l1.21-2.38h10.52l1.32,2.45a3,3,0,0,0,2.64,1.57h7.77a3,3,0,0,0,1.22-.28,3.1,3.1,0,0,0,1.26.28h7a3,3,0,0,0,3-3v-8l7.83,9.88a3,3,0,0,0,2.35,1.13h10.82a3,3,0,0,0,3-3V25.37h6.86V39.48a3,3,0,0,0,3,3h7a3,3,0,0,0,3-3V25.37h6.87V39.48a3,3,0,0,0,3,3h25.31a3,3,0,0,0,2.11-.86,3,3,0,0,0,2.11.86h25.31a3,3,0,0,0,2.24-1,3,3,0,0,0,2.23,1h21.07c4.24,0,7.27-.83,9.27-2.55s3.16-4.62,3.16-8.37V24.64C343.14,20.89,342.08,18.07,340,16.26Zm-20.36,9.11H329a5.41,5.41,0,0,1,1.07.09,5,5,0,0,1,.08,1v3.08a5,5,0,0,1-.08,1,4.72,4.72,0,0,1-1.07.09h-9.39Z"/><path class="cls-3" d="M71.6,43.11h-10c-4,0-7.16-1-9.32-2.91A9.23,9.23,0,0,1,50.5,38l0,.09a7.55,7.55,0,0,1-3.52,3.64,12.59,12.59,0,0,1-4.46,1.17c-1.41.13-3.27.19-5.7.19H28.39a24.74,24.74,0,0,1-5-.45A11.66,11.66,0,0,1,19,40.84a8.9,8.9,0,0,1-3.12-4A13.81,13.81,0,0,1,15,31.49V24.7a13.76,13.76,0,0,1,.94-5.37,9.07,9.07,0,0,1,3.1-4,11.37,11.37,0,0,1,4.38-1.84,26.19,26.19,0,0,1,5-.42h10.5a21.21,21.21,0,0,1,5.61.62A9.43,9.43,0,0,1,48.71,16l.21.21a3.37,3.37,0,0,1,3.34-2.88h7a3.37,3.37,0,0,1,3.37,3.37V29.86a4.86,4.86,0,0,0,0,.63l.49,0h6.92l.49,0a5.18,5.18,0,0,0,0-.63V16.71A3.38,3.38,0,0,1,74,13.34h7a3.37,3.37,0,0,1,3.37,3.37v14l8.47-15.64a3.38,3.38,0,0,1,3-1.77h9.09a3.37,3.37,0,0,1,3,1.75l8.67,15.77V16.71a3.37,3.37,0,0,1,3.37-3.37h21.07a13.09,13.09,0,0,1,4.44.67,8.19,8.19,0,0,1,3.5,2.3,8.72,8.72,0,0,1,1.82,3.46,14.55,14.55,0,0,1,.44,3.7v1.45a10.34,10.34,0,0,1-1.3,5.53l-.05.07a7.39,7.39,0,0,1,.7,1.44l9.12-16.85a3.38,3.38,0,0,1,3-1.77h9.09a3.39,3.39,0,0,1,3,1.75l8.66,15.76V16.71a3.38,3.38,0,0,1,3.38-3.37h10.82a3.32,3.32,0,0,1,2.64,1.28l7.16,9V16.71a3.37,3.37,0,0,1,3.38-3.37h7a3.41,3.41,0,0,1,1.52.37,3.45,3.45,0,0,1,1.53-.37h26.6a3.42,3.42,0,0,1,1.53.37,3.42,3.42,0,0,1,1.53-.37h24.9a3.3,3.3,0,0,1,2.31.93,3.34,3.34,0,0,1,2.32-.93h24.9a3.34,3.34,0,0,1,2.44,1.05,3.36,3.36,0,0,1,2.44-1.05h21.07c4.33,0,7.44.86,9.51,2.64h0c2.19,1.88,3.3,4.79,3.3,8.66v6.92c0,3.86-1.11,6.78-3.3,8.66s-5.18,2.64-9.51,2.64H309.64a3.34,3.34,0,0,1-2.23-.86,3.39,3.39,0,0,1-2.24.86H279.86a3.35,3.35,0,0,1-2.11-.74,3.35,3.35,0,0,1-2.11.74H250.33A3.38,3.38,0,0,1,247,39.48V25.74h-6.11V39.48a3.39,3.39,0,0,1-3.38,3.38h-7a3.38,3.38,0,0,1-3.37-3.38V25.75H221V39.48a3.38,3.38,0,0,1-3.37,3.38H206.8a3.38,3.38,0,0,1-2.65-1.28l-7.15-9v6.93a3.39,3.39,0,0,1-3.38,3.38h-7a3.27,3.27,0,0,1-1.26-.26,3.23,3.23,0,0,1-1.22.26h-7.77a3.37,3.37,0,0,1-3-1.78l-1.22-2.25H162.14L161,41a3.36,3.36,0,0,1-3,1.85h-7.8a3.22,3.22,0,0,1-1.27-.27,3.38,3.38,0,0,1-1.31.27h-7a3.38,3.38,0,0,1-3.37-3.38V36.94H130.2v2.54a3.39,3.39,0,0,1-3.38,3.38h-7a3.27,3.27,0,0,1-1.26-.26,3.23,3.23,0,0,1-1.22.26h-7.77a3.37,3.37,0,0,1-3-1.78l-1.21-2.25H95.34L94.23,41a3.36,3.36,0,0,1-3,1.85h-7.8a3.39,3.39,0,0,1-2.9-1.65,2.64,2.64,0,0,1-.23-.51C78.17,42.3,75.25,43.11,71.6,43.11Zm-21.22-7,.4.82a8.47,8.47,0,0,0,2,2.69c2,1.81,5,2.72,8.81,2.72h10c3.73,0,6.65-.87,8.66-2.59l.49-.42.12.63a2.54,2.54,0,0,0,2.55,2.13h7.8a2.6,2.6,0,0,0,2.34-1.44l1.32-2.59h11l1.43,2.65a2.62,2.62,0,0,0,2.31,1.38h7.77a2.62,2.62,0,0,0,1.07-.26l.15-.07.16.08a2.71,2.71,0,0,0,1.1.25h7a2.63,2.63,0,0,0,2.63-2.63V36.19H138l0,.56v2.73a2.62,2.62,0,0,0,2.62,2.63h7a2.58,2.58,0,0,0,1.14-.27l.16-.08.17.07a2.43,2.43,0,0,0,1.11.28H158a2.6,2.6,0,0,0,2.34-1.44l1.32-2.59h11l1.43,2.65a2.62,2.62,0,0,0,2.31,1.38h7.77a2.54,2.54,0,0,0,1.06-.26l.16-.07.16.08a2.67,2.67,0,0,0,1.1.25h7a2.63,2.63,0,0,0,2.63-2.63V30.4l8.49,10.71a2.62,2.62,0,0,0,2.06,1h10.82a2.62,2.62,0,0,0,2.62-2.63V25h7.62V39.48a2.62,2.62,0,0,0,2.62,2.63h7a2.63,2.63,0,0,0,2.63-2.63V25h7.56l0,.37V39.48a2.63,2.63,0,0,0,2.63,2.63h25.31a2.62,2.62,0,0,0,1.85-.76l.26-.26.26.26a2.62,2.62,0,0,0,1.85.76h25.31a2.61,2.61,0,0,0,2-.89l.28-.32.28.32a2.59,2.59,0,0,0,1.95.89h21.07c4.15,0,7.1-.81,9-2.46s3-4.45,3-8.09V24.64c0-3.64-1-6.36-3-8.09h0c-1.92-1.66-4.87-2.46-9-2.46H309.64a2.62,2.62,0,0,0-2.13,1.1l-.31.43-.3-.43a2.65,2.65,0,0,0-2.14-1.1h-24.9a2.62,2.62,0,0,0-2,1l-.29.35-.29-.35a2.59,2.59,0,0,0-2-1h-24.9a2.58,2.58,0,0,0-1.34.37l-.19.12-.19-.12a2.58,2.58,0,0,0-1.34-.37h-26.6a2.58,2.58,0,0,0-1.34.37l-.19.12-.19-.12a2.57,2.57,0,0,0-1.33-.37h-7A2.63,2.63,0,0,0,208,16.71V25.8l-8.49-10.72a2.61,2.61,0,0,0-2.06-1H186.64A2.63,2.63,0,0,0,184,16.71V33.78L173.94,15.45a2.62,2.62,0,0,0-2.3-1.36h-9.09a2.62,2.62,0,0,0-2.31,1.37L150.22,34,150,33c-.05-.21-.08-.34-.12-.46a6.78,6.78,0,0,0-.86-1.84l-.15-.21.15-.21.16-.26a9.62,9.62,0,0,0,1.19-5.13V23.47a13.57,13.57,0,0,0-.42-3.51,7.77,7.77,0,0,0-1.66-3.15,7.52,7.52,0,0,0-3.18-2.1,12.42,12.42,0,0,0-4.19-.62H119.84a2.63,2.63,0,0,0-2.62,2.62V33.78L107.14,15.45a2.62,2.62,0,0,0-2.3-1.36H95.75a2.62,2.62,0,0,0-2.31,1.37l-10,18.48.1-1.79c0-.26,0-.51,0-.78V16.71a2.62,2.62,0,0,0-2.62-2.62H74a2.63,2.63,0,0,0-2.63,2.62V29.86a5,5,0,0,1-.09,1l-.06.23-.23.05a4.44,4.44,0,0,1-.89.08H63.14a4.44,4.44,0,0,1-.89-.08L62,31.13l0-.23a4.83,4.83,0,0,1-.1-1V16.71a2.62,2.62,0,0,0-2.62-2.62h-7a2.63,2.63,0,0,0-2.63,2.62V18.4L49,17.46a6.22,6.22,0,0,0-.77-.92,8.65,8.65,0,0,0-3.88-2.11,20.56,20.56,0,0,0-5.41-.59H28.39a24.62,24.62,0,0,0-4.84.41A10.51,10.51,0,0,0,19.45,16a8.4,8.4,0,0,0-2.84,3.66,13.06,13.06,0,0,0-.88,5.08v6.79a13.11,13.11,0,0,0,.88,5.09,8.23,8.23,0,0,0,2.86,3.65,10.94,10.94,0,0,0,4.06,1.7,23.84,23.84,0,0,0,4.86.43h8.39c2.41,0,4.25-.06,5.63-.18a11.82,11.82,0,0,0,4.2-1.11,6.78,6.78,0,0,0,3.17-3.28,8.32,8.32,0,0,0,.3-.8ZM329,31h-9.76V25H329a5.28,5.28,0,0,1,1.15.1l.24,0,.05.24a5.41,5.41,0,0,1,.09,1.07v3.08a5.45,5.45,0,0,1-.09,1.08l-.05.24-.24.05A6,6,0,0,1,329,31Zm-9-.75h9a6.38,6.38,0,0,0,.74,0,5.63,5.63,0,0,0,0-.68V26.46a5.45,5.45,0,0,0,0-.67,6.38,6.38,0,0,0-.74,0h-9Z"/><path class="cls-4" d="M18.35,24.7A10.64,10.64,0,0,1,19,20.63,5.69,5.69,0,0,1,21,18.1a7.87,7.87,0,0,1,3.08-1.28,22.54,22.54,0,0,1,4.33-.36h10.5a18.23,18.23,0,0,1,4.7.5,6.25,6.25,0,0,1,2.74,1.43,4.74,4.74,0,0,1,1.26,2.22,12.9,12.9,0,0,1,.33,3.15v.72H41.06a2.21,2.21,0,0,0-.82-2.06,5.57,5.57,0,0,0-2.7-.49H30a9.47,9.47,0,0,0-2.22.21,2.64,2.64,0,0,0-1.32.71,2.92,2.92,0,0,0-.69,1.41,11.33,11.33,0,0,0-.2,2.42v2.83a11.2,11.2,0,0,0,.2,2.42,3,3,0,0,0,.69,1.42,2.72,2.72,0,0,0,1.32.71,10.13,10.13,0,0,0,2.22.2h7.45a10.08,10.08,0,0,0,1.42-.09A3.84,3.84,0,0,0,40,33.82a1.93,1.93,0,0,0,.8-.75,2.51,2.51,0,0,0,.3-1.29v-.66H32.38V26.4H48v6.48a9.16,9.16,0,0,1-.64,3.8,4.18,4.18,0,0,1-2,2,8.94,8.94,0,0,1-3.25.83c-1.29.12-3.09.17-5.4.17H28.39a21.7,21.7,0,0,1-4.33-.37A8.34,8.34,0,0,1,21,38.08,5.63,5.63,0,0,1,19,35.57a10.66,10.66,0,0,1-.68-4.08Z"/><path class="cls-4" d="M52.26,16.71h7V29.86a4.42,4.42,0,0,0,.88,3.1,4.08,4.08,0,0,0,3,.92h6.92a4.1,4.1,0,0,0,3-.92,4.47,4.47,0,0,0,.88-3.1V16.71h7V31.37q0,4.27-2.28,6.32t-7.06,2h-10q-4.79,0-7.06-2t-2.28-6.32Z"/><path class="cls-4" d="M95.75,16.71h9.09l12.52,22.77h-7.77l-2.17-4H93.27l-2,4h-7.8Zm.13,13.84h8.93L100.28,22Z"/><path class="cls-4" d="M119.84,16.71h21.07a10.14,10.14,0,0,1,3.31.47,5,5,0,0,1,2.09,1.36,5.22,5.22,0,0,1,1.1,2.1,10.94,10.94,0,0,1,.33,2.83v1.45a7.28,7.28,0,0,1-.8,3.76,4.7,4.7,0,0,1-3.1,1.84v.06a6.82,6.82,0,0,1,1.54.46,4,4,0,0,1,1.18.83,3.7,3.7,0,0,1,.8,1.46,7.89,7.89,0,0,1,.28,2.28v3.87h-7V36.75a3.8,3.8,0,0,0-.61-2.49,2.94,2.94,0,0,0-2.25-.69h-11v5.91h-7Zm7,11.2h11.55a2.82,2.82,0,0,0,2-.57,2.4,2.4,0,0,0,.59-1.82v-.76a2.13,2.13,0,0,0-.72-1.91,4.71,4.71,0,0,0-2.48-.48H126.82Z"/><path class="cls-4" d="M162.55,16.71h9.09l12.52,22.77h-7.77l-2.17-4H160.07l-2,4h-7.8Zm.13,13.84h8.93L167.08,22Z"/><path class="cls-4" d="M186.64,16.71h10.82l13.11,16.54h.07V16.71h7V39.48H206.8L193.68,22.94h-.06V39.48h-7Z"/><path class="cls-4" d="M220.67,16.71h26.6v5.66h-9.81V39.48h-7V22.37h-9.81Z"/><path class="cls-4" d="M250.33,16.71h24.9V22H257.31v3.64h17v4.72h-17V34h18.33v5.47H250.33Z"/><path class="cls-4" d="M279.86,16.71h24.9V22H286.84v3.64h17v4.72h-17V34h18.33v5.47H279.86Z"/><path class="cls-4" d="M309.64,16.71h21.07q5.19,0,7.31,1.83c1.42,1.21,2.12,3.25,2.12,6.1v6.92c0,2.85-.7,4.88-2.12,6.1s-3.85,1.82-7.31,1.82H309.64Zm7,16.92H329a4.77,4.77,0,0,0,3.23-.86,4.4,4.4,0,0,0,.92-3.23V26.46a4.37,4.37,0,0,0-.92-3.22,4.71,4.71,0,0,0-3.23-.87H316.62Z"/><path d="M17.9,49.76H22l5.67,10.32H24.17l-1-1.83H16.77l-.93,1.83H12.31ZM18,56H22L20,52.15Z"/><path d="M28.82,49.76H32v6a2,2,0,0,0,.4,1.4,1.84,1.84,0,0,0,1.37.42h3.14a1.86,1.86,0,0,0,1.37-.42,2,2,0,0,0,.39-1.4v-6h3.17V56.4a3.67,3.67,0,0,1-1,2.87,4.74,4.74,0,0,1-3.2.92H33.05a4.74,4.74,0,0,1-3.2-.92,3.67,3.67,0,0,1-1-2.87Z"/><path d="M43.2,49.76H55.27v2.56H50.82v7.76H47.65V52.32H43.2Z"/><path d="M56.42,53.38a4.73,4.73,0,0,1,.31-1.85,2.63,2.63,0,0,1,.88-1.15,3.53,3.53,0,0,1,1.4-.57,10,10,0,0,1,2-.17H66a10,10,0,0,1,2,.17,3.91,3.91,0,0,1,1.41.58,2.48,2.48,0,0,1,.88,1.14,4.94,4.94,0,0,1,.3,1.85v3.08a4.88,4.88,0,0,1-.3,1.84,2.59,2.59,0,0,1-.88,1.14A3.74,3.74,0,0,1,68,60a9.28,9.28,0,0,1-2,.17H61A9.28,9.28,0,0,1,59,60a3.54,3.54,0,0,1-1.4-.58,2.55,2.55,0,0,1-.88-1.14,4.68,4.68,0,0,1-.31-1.84Zm3.25,2.09A2.68,2.68,0,0,0,60,57.09a1.83,1.83,0,0,0,1.45.45h4.05A1.82,1.82,0,0,0,67,57.09a2.68,2.68,0,0,0,.36-1.62V54.36a2.49,2.49,0,0,0-.4-1.56,2,2,0,0,0-1.58-.51H61.65a1.93,1.93,0,0,0-1.57.51,2.49,2.49,0,0,0-.41,1.56Z"/><path d="M72.5,49.76h4.87l3.57,6.64,3.58-6.64h4.86V60.08H86.31V52.66h0l-4.15,7.42H79.76l-4.15-7.42h0v7.42H72.5Z"/><path d="M91.3,53.38a4.94,4.94,0,0,1,.3-1.85,2.65,2.65,0,0,1,.89-1.15,3.49,3.49,0,0,1,1.39-.57,10.07,10.07,0,0,1,2-.17h5.08a10.07,10.07,0,0,1,2,.17,3.86,3.86,0,0,1,1.4.58,2.5,2.5,0,0,1,.89,1.14,4.94,4.94,0,0,1,.3,1.85v3.08a4.88,4.88,0,0,1-.3,1.84,2.61,2.61,0,0,1-.89,1.14,3.69,3.69,0,0,1-1.4.58,9.34,9.34,0,0,1-2,.17H95.84a9.34,9.34,0,0,1-2-.17,3.5,3.5,0,0,1-1.39-.58,2.56,2.56,0,0,1-.89-1.14,4.88,4.88,0,0,1-.3-1.84Zm3.25,2.09a2.68,2.68,0,0,0,.36,1.62,1.8,1.8,0,0,0,1.45.45h4a1.79,1.79,0,0,0,1.44-.45,2.6,2.6,0,0,0,.37-1.62V54.36a2.49,2.49,0,0,0-.41-1.56,2,2,0,0,0-1.58-.51h-3.7A2,2,0,0,0,95,52.8a2.49,2.49,0,0,0-.4,1.56Z"/><path d="M106.62,49.76h12.07v2.56h-4.45v7.76h-3.17V52.32h-4.45Z"/><path d="M120.24,49.76h3.16V60.08h-3.16Z"/><path d="M124.72,49.76h3.46l4,7.67,4-7.67h3.47l-5.55,10.32h-3.91Z"/><path d="M140.86,49.76h11.29v2.39H144v1.66h7.7v2.13H144V57.6h8.31v2.48H140.86Z"/><path d="M161.17,56.47a2.64,2.64,0,0,1,.49-1.74,2.49,2.49,0,0,1,1.75-.51v0a4.29,4.29,0,0,1-.59-.44,1.47,1.47,0,0,1-.31-.42,1.59,1.59,0,0,1-.12-.51q0-.28,0-.81a4.43,4.43,0,0,1,.13-1.23,1.24,1.24,0,0,1,.52-.7,2.79,2.79,0,0,1,1.1-.35,16.68,16.68,0,0,1,2-.09h2.45a15.71,15.71,0,0,1,2.21.12,2.82,2.82,0,0,1,1.23.41,1.52,1.52,0,0,1,.6.85,6,6,0,0,1,.15,1.52v.57H170v-.5a.68.68,0,0,0-.32-.64,2.33,2.33,0,0,0-1.09-.19h-2.18a2.24,2.24,0,0,0-.9.12c-.15.08-.22.25-.22.51a.78.78,0,0,0,.12.47,1.91,1.91,0,0,0,.56.38l5.15,2.66V54.55h2.56V56c0,.23,0,.42,0,.59s0,.33-.08.51v.08l1.84,1-.87,1.94-1.81-.94a1.67,1.67,0,0,1-.6.55,2.8,2.8,0,0,1-.82.32,5.64,5.64,0,0,1-.93.15c-.33,0-.69,0-1.09,0H165a8.57,8.57,0,0,1-1.62-.13,3.26,3.26,0,0,1-1.19-.47,2,2,0,0,1-.76-.89,3.35,3.35,0,0,1-.27-1.43ZM170.1,58c.05,0,.07,0,.07-.09l-4.86-2.48a1.1,1.1,0,0,0-.47-.07.77.77,0,0,0-.63.25,1.79,1.79,0,0,0-.21,1.05,1.27,1.27,0,0,0,.36,1.06,2,2,0,0,0,1.2.28Z"/><path d="M182.7,49.76h12.06v2.56h-4.44v7.76h-3.17V52.32H182.7Z"/><path d="M196.15,49.76h9.55a4.59,4.59,0,0,1,1.5.21,2.3,2.3,0,0,1,1,.61,2.43,2.43,0,0,1,.49,1,4.94,4.94,0,0,1,.15,1.28v.66a3.28,3.28,0,0,1-.36,1.7A2.12,2.12,0,0,1,207,56v0a3,3,0,0,1,.69.21,1.83,1.83,0,0,1,.54.38,1.49,1.49,0,0,1,.36.66,3.44,3.44,0,0,1,.13,1v1.76h-3.16V58.84a1.77,1.77,0,0,0-.28-1.13,1.34,1.34,0,0,0-1-.31h-5v2.68h-3.16Zm3.16,5.07h5.24a1.23,1.23,0,0,0,.89-.26,1.08,1.08,0,0,0,.27-.82v-.34c0-.44-.1-.73-.32-.87a2.11,2.11,0,0,0-1.13-.22h-4.95Z"/><path d="M215.51,49.76h4.12l5.68,10.32h-3.53l-1-1.83h-6.42l-.92,1.83h-3.54Zm.06,6.27h4.05l-2.06-3.88Z"/><path d="M226.43,49.76h4.91l5.94,7.5h0v-7.5h3.17V60.08h-4.91l-5.94-7.5h0v7.5h-3.17Z"/><path d="M242.43,56.7h3.16a1.24,1.24,0,0,0,.31,1,2.05,2.05,0,0,0,1.06.2h3.88a2.45,2.45,0,0,0,1-.16.7.7,0,0,0,.36-.71.93.93,0,0,0-.14-.55,1,1,0,0,0-.56-.26,7.86,7.86,0,0,0-1.22-.11c-.54,0-1.38,0-2.53,0a23.43,23.43,0,0,1-2.88-.14,3.91,3.91,0,0,1-1.55-.46,1.59,1.59,0,0,1-.7-.91,5.59,5.59,0,0,1-.18-1.6,7.55,7.55,0,0,1,.11-1.4,2,2,0,0,1,.51-1,2.68,2.68,0,0,1,1.25-.68,8.84,8.84,0,0,1,2.3-.24H251a8.37,8.37,0,0,1,2.14.22,2.59,2.59,0,0,1,1.2.6,2,2,0,0,1,.52.93,5.37,5.37,0,0,1,.13,1.3V53h-3.17a1.11,1.11,0,0,0-.25-.85,2.29,2.29,0,0,0-1.29-.22h-3.5a1.69,1.69,0,0,0-.88.2.66.66,0,0,0-.32.6,1,1,0,0,0,.11.5.83.83,0,0,0,.48.26,6,6,0,0,0,1.1.12c.49,0,1.18,0,2.09,0,1.35,0,2.39,0,3.14.11a5.14,5.14,0,0,1,1.76.43,1.85,1.85,0,0,1,.9,1,5,5,0,0,1,.26,1.79,5.43,5.43,0,0,1-.22,1.7,1.82,1.82,0,0,1-.77,1,3.79,3.79,0,0,1-1.52.46,22.73,22.73,0,0,1-2.64.12h-3.84a10.85,10.85,0,0,1-1.87-.13,3.29,3.29,0,0,1-1.23-.42,1.75,1.75,0,0,1-.7-.84,3.51,3.51,0,0,1-.23-1.39Z"/><path d="M257.4,49.76h4.86l3.58,6.64,3.58-6.64h4.86V60.08H271.2V52.66h0L267,60.08h-2.36l-4.15-7.42h0v7.42H257.4Z"/><path d="M276.59,49.76h3.17V60.08h-3.17Z"/><path d="M281.88,56.7H285a1.24,1.24,0,0,0,.31,1,2.05,2.05,0,0,0,1.06.2h3.88a2.45,2.45,0,0,0,1-.16.7.7,0,0,0,.36-.71.93.93,0,0,0-.14-.55,1,1,0,0,0-.55-.26,8,8,0,0,0-1.23-.11c-.54,0-1.38,0-2.53,0a23.13,23.13,0,0,1-2.87-.14,4,4,0,0,1-1.56-.46,1.59,1.59,0,0,1-.7-.91,5.59,5.59,0,0,1-.18-1.6,7.55,7.55,0,0,1,.11-1.4,2,2,0,0,1,.51-1,2.68,2.68,0,0,1,1.25-.68,8.84,8.84,0,0,1,2.3-.24h4.42a8.37,8.37,0,0,1,2.14.22,2.59,2.59,0,0,1,1.2.6,1.88,1.88,0,0,1,.52.93,5.37,5.37,0,0,1,.13,1.3V53H291.3a1.11,1.11,0,0,0-.25-.85,2.29,2.29,0,0,0-1.29-.22h-3.5a1.69,1.69,0,0,0-.88.2.66.66,0,0,0-.32.6,1,1,0,0,0,.11.5.83.83,0,0,0,.48.26,6,6,0,0,0,1.1.12c.49,0,1.18,0,2.09,0,1.35,0,2.4,0,3.14.11a5.07,5.07,0,0,1,1.76.43,1.85,1.85,0,0,1,.9,1A5,5,0,0,1,294.9,57a5.43,5.43,0,0,1-.22,1.7,1.82,1.82,0,0,1-.77,1,3.79,3.79,0,0,1-1.52.46,22.73,22.73,0,0,1-2.64.12h-3.83a10.9,10.9,0,0,1-1.88-.13,3.29,3.29,0,0,1-1.23-.42,1.81,1.81,0,0,1-.7-.84,3.7,3.7,0,0,1-.23-1.39Z"/><path d="M296.67,56.7h3.16c0,.51.11.84.31,1a2,2,0,0,0,1.06.2h3.88a2.45,2.45,0,0,0,1-.16.71.71,0,0,0,.35-.71.93.93,0,0,0-.13-.55,1,1,0,0,0-.56-.26,7.86,7.86,0,0,0-1.22-.11c-.54,0-1.39,0-2.54,0a23.36,23.36,0,0,1-2.87-.14,3.86,3.86,0,0,1-1.55-.46,1.59,1.59,0,0,1-.7-.91,5.59,5.59,0,0,1-.18-1.6,7.55,7.55,0,0,1,.11-1.4,2,2,0,0,1,.5-1,2.77,2.77,0,0,1,1.26-.68,8.76,8.76,0,0,1,2.29-.24h4.42a8.26,8.26,0,0,1,2.14.22,2.63,2.63,0,0,1,1.21.6,2,2,0,0,1,.52.93,5.93,5.93,0,0,1,.13,1.3V53h-3.17a1.1,1.1,0,0,0-.26-.85,2.25,2.25,0,0,0-1.28-.22H301a1.65,1.65,0,0,0-.87.2.64.64,0,0,0-.32.6.86.86,0,0,0,.11.5.83.83,0,0,0,.48.26,6,6,0,0,0,1.1.12c.48,0,1.18,0,2.08,0,1.35,0,2.4,0,3.15.11a5.2,5.2,0,0,1,1.76.43,1.85,1.85,0,0,1,.9,1,5,5,0,0,1,.25,1.79,5.15,5.15,0,0,1-.22,1.7,1.73,1.73,0,0,1-.77,1,3.69,3.69,0,0,1-1.52.46,22.42,22.42,0,0,1-2.63.12H300.7a10.85,10.85,0,0,1-1.87-.13,3.29,3.29,0,0,1-1.23-.42,1.83,1.83,0,0,1-.71-.84,3.72,3.72,0,0,1-.22-1.39Z"/><path d="M311.81,49.76H315V60.08h-3.16Z"/><path d="M317.05,53.38a4.93,4.93,0,0,1,.31-1.85,2.65,2.65,0,0,1,.89-1.15,3.49,3.49,0,0,1,1.39-.57,10.07,10.07,0,0,1,2-.17h5.08a10.07,10.07,0,0,1,2,.17,3.86,3.86,0,0,1,1.4.58,2.5,2.5,0,0,1,.89,1.14,4.94,4.94,0,0,1,.3,1.85v3.08a4.88,4.88,0,0,1-.3,1.84,2.61,2.61,0,0,1-.89,1.14,3.69,3.69,0,0,1-1.4.58,9.34,9.34,0,0,1-2,.17H321.6a9.34,9.34,0,0,1-2-.17,3.5,3.5,0,0,1-1.39-.58,2.56,2.56,0,0,1-.89-1.14,4.87,4.87,0,0,1-.31-1.84Zm3.25,2.09a2.67,2.67,0,0,0,.37,1.62,1.8,1.8,0,0,0,1.45.45h4.05a1.79,1.79,0,0,0,1.44-.45,2.67,2.67,0,0,0,.37-1.62V54.36a2.49,2.49,0,0,0-.41-1.56,2,2,0,0,0-1.58-.51h-3.7a2,2,0,0,0-1.58.51,2.49,2.49,0,0,0-.41,1.56Z"/><path d="M333.14,49.76H338l5.95,7.5h0v-7.5h3.16V60.08h-4.9l-5.95-7.5h0v7.5h-3.16Z"/><path class="cls-5" d="M91.51,74.26h2.73q0,.66.27.84a1.63,1.63,0,0,0,.91.18h3.35a2.2,2.2,0,0,0,.86-.14.61.61,0,0,0,.31-.61.76.76,0,0,0-.12-.47.82.82,0,0,0-.48-.23,7.17,7.17,0,0,0-1.06-.1l-2.18,0a19.76,19.76,0,0,1-2.48-.12,3.44,3.44,0,0,1-1.34-.4,1.37,1.37,0,0,1-.6-.78A4.91,4.91,0,0,1,91.52,71a6.44,6.44,0,0,1,.1-1.21,1.68,1.68,0,0,1,.43-.85,2.29,2.29,0,0,1,1.09-.59,7.47,7.47,0,0,1,2-.21h3.81a7.06,7.06,0,0,1,1.84.19,2.25,2.25,0,0,1,1,.52,1.61,1.61,0,0,1,.45.8,5.14,5.14,0,0,1,.11,1.13v.28H99.64a.92.92,0,0,0-.22-.73,2,2,0,0,0-1.11-.19h-3a1.4,1.4,0,0,0-.76.17.57.57,0,0,0-.28.51.87.87,0,0,0,.1.44.75.75,0,0,0,.42.22,4.45,4.45,0,0,0,.94.11l1.8,0c1.17,0,2.07,0,2.72.09a4.35,4.35,0,0,1,1.51.38,1.6,1.6,0,0,1,.78.84,4.16,4.16,0,0,1,.22,1.53,4.4,4.4,0,0,1-.19,1.47,1.6,1.6,0,0,1-.66.83,3.45,3.45,0,0,1-1.31.39,19.53,19.53,0,0,1-2.28.1H95a9.08,9.08,0,0,1-1.61-.11,2.8,2.8,0,0,1-1.06-.36,1.56,1.56,0,0,1-.61-.73,3.11,3.11,0,0,1-.2-1.19Z"/><path class="cls-5" d="M120.82,68.27h9.74v2.07h-7v1.43h6.64v1.84h-6.64V75h7.17v2.14h-9.9Z"/><path class="cls-5" d="M148.76,68.27H157a3.66,3.66,0,0,1,1.29.19,1.86,1.86,0,0,1,.82.53,2,2,0,0,1,.43.82,4.13,4.13,0,0,1,.13,1.11v.56a2.82,2.82,0,0,1-.31,1.47,1.85,1.85,0,0,1-1.21.72v0a3.05,3.05,0,0,1,.6.17,1.62,1.62,0,0,1,.46.33,1.41,1.41,0,0,1,.31.57,2.88,2.88,0,0,1,.11.89v1.52H156.9V76.11a1.51,1.51,0,0,0-.24-1,1.14,1.14,0,0,0-.88-.27h-4.29v2.32h-2.73Zm2.73,4.38H156a1.09,1.09,0,0,0,.77-.22.94.94,0,0,0,.23-.71v-.3c0-.38-.09-.63-.28-.75a1.91,1.91,0,0,0-1-.18h-4.27Z"/><path class="cls-5" d="M177.05,68.27h3l3.48,6.62L187,68.27h3l-4.79,8.91h-3.37Z"/><path class="cls-5" d="M207.51,68.27h2.73v8.91h-2.73Z"/><path class="cls-5" d="M228.43,71.4a4.14,4.14,0,0,1,.27-1.6,2.24,2.24,0,0,1,.76-1,3.27,3.27,0,0,1,1.2-.5,9.14,9.14,0,0,1,1.69-.14h3.21a12.64,12.64,0,0,1,2.3.17,2.75,2.75,0,0,1,1.3.55,1.88,1.88,0,0,1,.61,1,6.64,6.64,0,0,1,.16,1.65H237.2v-.24a.67.67,0,0,0-.32-.64,1.87,1.87,0,0,0-1-.19h-3a1.7,1.7,0,0,0-1.36.44,2.15,2.15,0,0,0-.35,1.34v1a2.28,2.28,0,0,0,.32,1.4,1.55,1.55,0,0,0,1.25.39h2.91a5.45,5.45,0,0,0,.79,0,1,1,0,0,0,.47-.16.64.64,0,0,0,.26-.37,2.27,2.27,0,0,0,.08-.66H240v.83a4,4,0,0,1-.13,1.09,1.88,1.88,0,0,1-.5.83,2.28,2.28,0,0,1-1,.56,5.55,5.55,0,0,1-1.65.2h-4.41a8.34,8.34,0,0,1-1.69-.14,3.27,3.27,0,0,1-1.2-.5,2.18,2.18,0,0,1-.76-1,4.06,4.06,0,0,1-.27-1.59Z"/><path class="cls-5" d="M258.08,68.27h9.74v2.07h-7v1.43h6.64v1.84h-6.64V75H268v2.14h-9.9Z"/><circle class="cls-5" cx="111.35" cy="72.71" r="2.44"/><circle class="cls-5" cx="139.1" cy="72.71" r="2.44"/><circle class="cls-5" cx="167.69" cy="72.71" r="2.44"/><circle class="cls-5" cx="197.35" cy="72.71" r="2.44"/><circle class="cls-5" cx="219.81" cy="72.71" r="2.44"/><circle class="cls-5" cx="248.92" cy="72.71" r="2.44"/><rect class="cls-4" x="51.75" y="82.77" width="255" height="2.5"/></svg>